<?xml version="1.0" encoding="UTF-8"?>
<!DOCTYPE svg PUBLIC "-//W3C//DTD SVG 1.1//EN" "http://www.w3.org/Graphics/SVG/1.1/DTD/svg11.dtd">
<!-- Creator: CorelDRAW X7 -->
<svg xmlns="http://www.w3.org/2000/svg" xml:space="preserve" width="0.974079in" height="1.16684in" version="1.1" style="shape-rendering:geometricPrecision; text-rendering:geometricPrecision; image-rendering:optimizeQuality; fill-rule:evenodd; clip-rule:evenodd"
viewBox="0 0 84 101"
 xmlns:xlink="http://www.w3.org/1999/xlink">
 <defs>
  <style type="text/css">
   <![CDATA[
    .fil0 {fill:#2B6498}
    .fil3 {fill:#7D9FBD}
    .fil1 {fill:#9ED5F4}
    .fil2 {fill:#FCFCFC}
   ]]>
  </style>
 </defs>
 <g id="Layer_x0020_1">
  <metadata id="CorelCorpID_0Corel-Layer"/>
  <g id="_1984817052576">
   <path class="fil0" d="M18 23c0,1 2,9 3,10 0,2 1,8 2,9 3,-3 10,-3 14,-1 1,-1 6,-11 7,-12 0,1 1,1 1,2 0,0 0,0 1,1 1,-3 5,-4 9,-4 0,-1 -6,-11 -7,-13 -3,0 -7,2 -9,3 2,-2 5,-3 8,-5l0 0c0,-1 -1,-2 -1,-3 -1,0 -1,-1 -2,-2 0,0 0,0 -1,1 0,0 0,1 -1,1 0,1 -1,2 -1,3l-8 15c0,0 0,0 -1,0 0,-1 0,-2 0,-3l-2 -7 -4 -13c0,-2 -1,-4 -1,-5l-14 0c0,1 1,2 1,3 1,4 5,19 6,20z"/>
   <path class="fil1" d="M53 50c0,0 -5,-2 -7,-3 -2,-1 -4,-2 -6,-3 -4,-2 -10,-5 -14,-1 -5,3 -3,10 1,11 3,1 6,0 6,-3 1,-3 -1,-4 -4,-4 8,-2 8,10 -1,9 -5,-1 -9,-6 -5,-14 -1,-1 -2,-7 -2,-9 -1,-1 -3,-9 -3,-10 0,2 0,2 -2,2 -3,1 -6,2 -9,2 0,1 8,5 11,5 1,1 2,1 2,1 0,1 0,0 -2,1 -6,3 -9,7 -17,9l0 0c3,1 4,1 8,4 3,3 6,6 9,8 4,4 9,6 15,5 5,-1 9,-3 14,-6l6 -4z"/>
   <path class="fil0" d="M6 100c2,0 5,0 7,0 1,0 1,-3 1,-4l3 -15c0,0 1,0 1,0 0,0 0,0 0,0 0,2 1,7 1,10l2 7c0,3 0,2 6,2 1,0 1,-1 2,-3l5 -21c1,-1 1,-2 1,-4l-6 0 -4 17c0,1 0,2 0,2 -1,-2 -4,-17 -4,-19 -7,0 -6,0 -7,2 -1,6 -2,13 -4,18 0,0 0,-1 0,-2 0,-1 0,-2 -1,-3l-1 -10c-1,-1 -1,-2 -1,-2 0,-3 1,-3 -6,-3 -1,0 -1,1 -1,1l6 27z"/>
   <path class="fil1" d="M46 32c-1,-1 -1,-1 -1,-1 0,-1 -1,-1 -1,-2 -1,1 -6,11 -7,12 6,2 11,7 18,7 5,1 12,-4 16,-6 1,-1 4,-3 5,-3 -3,-1 -7,-3 -10,-5 -3,-1 -6,-4 -10,-5 -5,0 -9,1 -10,5 -1,5 3,9 7,9 4,-1 4,-6 2,-7 -1,-1 -2,-1 -2,-2 7,0 7,11 -2,10 -5,-1 -9,-8 -5,-12z"/>
   <path class="fil0" d="M61 99c0,-2 0,-13 0,-14l-10 0 0 4 4 0c1,1 1,5 0,6 -1,0 -1,0 -3,0 -10,1 -12,-14 -3,-17 2,-1 3,-1 5,0 4,0 2,0 5,1 0,-1 1,-5 1,-6 -4,-2 -14,-2 -19,3 -5,6 -5,14 -1,20 3,3 9,5 13,4 1,0 3,0 4,0l4 -1z"/>
   <path class="fil0" d="M65 80c0,2 1,4 2,5 2,3 5,3 7,4 2,1 4,2 4,3 0,1 -1,2 -2,3 -2,1 -5,0 -7,0 -3,-1 -2,-3 -4,4 6,3 19,2 19,-6 0,-4 -1,-7 -5,-8l-6 -3c-3,-2 -1,-5 3,-5 3,0 4,1 6,1l1 -5c-6,-3 -18,-1 -18,7z"/>
   <path class="fil0" d="M59 17c-1,2 -1,4 -2,6 0,1 0,2 -1,2 0,2 0,2 0,3 3,0 10,4 11,5l0 0c2,-2 2,-8 3,-10 1,-3 4,-13 4,-14l-14 2c0,2 -1,5 -1,6z"/>
   <path class="fil2" d="M23 42c-4,8 0,13 5,14 9,1 9,-11 1,-9 3,0 5,1 4,4 0,3 -3,4 -6,3 -4,-1 -6,-8 -1,-11 4,-4 10,-1 14,1 2,1 4,2 6,3 2,1 7,3 7,3 2,-1 1,0 2,-2 -7,0 -12,-5 -18,-7 -4,-2 -11,-2 -14,1z"/>
   <path class="fil1" d="M67 33c1,1 1,1 3,1 4,1 10,-6 13,-6l0 -1c-2,0 -4,-1 -6,-1l-7 -2 0 -1c-1,2 -1,8 -3,10z"/>
   <path class="fil1" d="M55 28l1 0c0,-1 0,-1 0,-3 1,0 1,-1 1,-2 1,-2 1,-4 2,-6 -1,0 -1,0 -1,1 -1,-1 -1,-1 -2,-2 -5,-3 -7,-2 -9,-3l0 0c-3,2 -6,3 -8,5 2,-1 6,-3 9,-3 1,2 7,12 7,13z"/>
   <path class="fil2" d="M46 32c-4,4 0,11 5,12 9,1 9,-10 2,-10 0,1 1,1 2,2 2,1 2,6 -2,7 -4,0 -8,-4 -7,-9 1,-4 5,-5 10,-5 4,1 7,4 10,5 0,0 0,0 1,0 0,-1 0,-1 0,-1 -1,-1 -8,-5 -11,-5l-1 0c-4,0 -8,1 -9,4z"/>
   <path class="fil0" d="M62 7c0,0 6,-2 9,-2 0,0 4,0 4,-1 1,0 1,-1 1,-2 0,-1 1,-1 1,-2l-14 0c0,2 -1,6 -1,7z"/>
   <path class="fil1" d="M30 18l2 7c0,1 0,2 0,3 1,0 1,0 1,0l8 -15c-3,0 -8,3 -10,4 0,1 -1,1 -1,1z"/>
   <path class="fil3" d="M55 95c1,-1 1,-5 0,-6l-4 0 0 -4 10 0c0,1 0,12 0,14 0,-1 0,0 0,-2l0 -13 -10 0 0 5c1,0 2,0 2,0 2,0 2,0 2,1 0,2 0,4 0,5z"/>
  </g>
 </g>
</svg>
